<svg id="svg2" xmlns="http://www.w3.org/2000/svg" xmlns:xlink="http://www.w3.org/1999/xlink" viewBox="0 0 617.5 47.5"><style>.st3{fill:#5dadec}.st5{fill:#d99e82}.st8{fill:#003478}.st10{fill:#292f33}.st12{fill:#aa8dd8}.st16{fill:#e1e8ed}.st17{fill:#a0041e}.st18{fill:#cbb7ea}.st19{fill:#dd2e44}.st22{fill:#f4abba}.st24{fill:#f2abba}.st25{fill:#e75a70}.st27{fill:#fff}.st28{fill:#ea596e}.st29{fill:#ffcc4d}.st30{fill:#3b88c3}.st31{fill:#269}.st37{fill:#9268ca}.st38{fill:#7450a8}.st39{fill:#d79e84}.st41{fill:#bf6952}.st45{fill:#8899a6}.st48{fill:#2a6797}</style><g id="g10" transform="matrix(1.25 0 0 -1.25 0 47.5)"><g id="g12"><defs><path id="SVGID_1_" d="M-4.8-4.8h47.5v47.5H-4.8z"/></defs><clipPath id="SVGID_2_"><use xlink:href="#SVGID_1_" overflow="visible"/></clipPath><g id="g14" clip-path="url(#SVGID_2_)"><g id="g20" transform="translate(35.3 20.1)"><path id="path22" d="M0 0l-8.9 3.3-3.3 10.9c-.1.4-.5.7-1 .7-.4 0-.8-.3-1-.7l-3.3-10.9-8.9-3.3c-.3-.1-.6-.5-.6-.9s.3-.8.7-.9l8.9-3.3 3.3-11.2c.1-.4.5-.7 1-.7s.8.3 1 .7l3.3 11.2L0-1.9c.4.1.7.5.7.9 0 .5-.3.9-.7 1" fill="#aa8ed6"/></g><g id="g24" transform="translate(15.3 9.1)"><path id="path26" d="M0 0l-2.3.9-.9 3.3c-.1.4-.5.7-1 .7s-.8-.3-1-.7L-6 .9-8.4 0C-8.7-.1-9-.5-9-.9s.3-.8.7-.9l2.3-.9.9-3.6a1 1 0 0 1 1-.8c.5 0 .9.3 1 .8l.9 3.6 2.2.8c.4.1.7.5.7.9 0 .5-.3.9-.7 1" fill="#fcab40"/></g><g id="g28" transform="translate(11 30.8)"><path id="path30" class="st3" d="M0 0l-2.4.9-.9 2.4a1 1 0 0 1-.9.7 1 1 0 0 1-.9-.7L-6 .9-8.4 0C-8.7-.1-9-.5-9-.9s.3-.8.7-.9l2.3-1 .9-2.4c.1-.3.5-.6.9-.6s.8.3.9.7l.9 2.4 2.4.8c.4.1.7.5.7.9S.4-.1 0 0"/></g></g></g></g><g id="g10_1_" transform="matrix(1.25 0 0 -1.25 0 47.5)"><g id="g12_1_"><defs><path id="SVGID_3_" d="M33.2-4.3h47.5v47.5H33.2z"/></defs><clipPath id="SVGID_4_"><use xlink:href="#SVGID_3_" overflow="visible"/></clipPath><g id="g14_1_" clip-path="url(#SVGID_4_)"><g id="g20_1_" transform="translate(22.4 34)"><path id="path22_1_" class="st5" d="M38 .4c-2 .4-2.4-1.5-2.4-1.5l-3.1-11.6-1.3-.1-2 10.5S29-.3 27-.5c-2-.2-1.8-2.2-1.8-2.2l2.2-12h8.2l.6-.1L39.5-2S40 0 38 .4"/></g><g id="g24_1_" transform="translate(31 15)"><path id="path26_1_" class="st5" d="M38 .4c0-1.1-.9-1.9-1.9-1.9h-.2c-1.1 0-1.9.9-1.9 1.9v4.2c0 1.1.9 1.9 1.9 1.9h.2c1.1 0 1.9-.9 1.9-1.9V.4z"/></g><g id="g28_1_" transform="translate(24 23)"><path id="path30_1_" class="st5" d="M38 .4a2 2 0 0 1-2-2v-2.8c.6-.5 1-1.3 1-2.2 0-.8-.3-1.4-.7-2 .3-.6 1-1 1.7-1a2 2 0 0 1 2 2v6a2 2 0 0 1-2 2"/></g><g id="g32" transform="translate(29 12)"><path id="path34" class="st5" d="M38 .4h-.1c-1 0-1.9.5-2.5 1.3l-.4-.5-.2-.1-.4-.3-.2-.1-.4-.2-.2-.1-.7-.1-.7.1-.2.1-.4.2-.2.1-.5.3-.5.6c-.2-.1-.5-.4-1.5-.4h-2.5c1.8-1.4 3-4 3-7 0-.3-.2-.5-.5-.5s-.5.2-.5.5c0 3.9-2.2 7-4.9 7h-.1c-.3 0-.5.2-.5.5s.2.5.5.5h5.5c1.1 0 2 .9 2 2s-.9 2-2 2h-8-.5l-.2-.1-.2-.1-.2-.1-.2-.1-.1-.1-.1-.1-.1-.2-.1-.2-.1-.2-.1-.2v-.1l-1.1-3.6c-.1-.3-.5-1.9-.4-2.2 0-4.8 4.7-9.8 10.4-9.8A12 12 0 0 1 39.9.9C39.4.7 38.7.4 38 .4"/></g></g></g></g><g id="g10_2_" transform="matrix(1.25 0 0 -1.25 0 47.5)"><g id="g12_2_"><defs><path id="SVGID_5_" d="M71.2-4.3h47.5v47.5H71.2z"/></defs><clipPath id="SVGID_6_"><use xlink:href="#SVGID_5_" overflow="visible"/></clipPath><g id="g14_2_" clip-path="url(#SVGID_6_)"><g id="g20_2_" transform="translate(37 10)"><path id="path22_2_" d="M76 .4a4 4 0 0 0-4-4H44a4 4 0 0 0-4 4v18a4 4 0 0 0 4 4h28a4 4 0 0 0 4-4V.4z" fill="#eee"/></g><g id="g28_2_" transform="translate(22.4 24)"><path id="path30_2_" d="M76 .4a6 6 0 0 1-8.4-1.5c-.9-1.4-.6-3.2.7-4.2 1.4-.9 3.2-.6 4.2.7a3 3 0 0 0 4.2.7 3 3 0 0 0 .7-4.2A6 6 0 0 1 76 .4" fill="#c60c30"/></g><g id="g32_1_" transform="translate(23.2 19.7)"><path id="path34_1_" class="st8" d="M76 .4a3 3 0 0 1-4.2-.7c-.9-1.4-2.8-1.7-4.2-.8a3 3 0 0 0-.7 4.2 6 6 0 0 1 1.5-8.4 6 6 0 0 1 8.4 1.5A3 3 0 0 1 76 .4"/></g><g id="g36" transform="translate(27.3 13.7)"><path id="path38" class="st10" d="M76 .4l-1.9-2.3.8-.6 1.9 2.3-.8.6z"/></g><g id="g40" transform="translate(28 14.5)"><path id="path42" class="st10" d="M76 .4l.8-.6 1.9 2.3-.8.6L76 .4z"/></g><g id="g44" transform="translate(28.8 12.4)"><path id="path46" class="st10" d="M76 .4l-1.9-2.3.8-.6 1.9 2.3-.8.6z"/></g><g id="g48" transform="translate(29.4 13.2)"><path id="path50" class="st10" d="M76 .4l.8-.6 1.9 2.3-.8.6L76 .4z"/></g><g id="g52" transform="translate(30.3 11.2)"><path id="path54" class="st10" d="M76 .4l-1.9-2.3.8-.6 1.9 2.3-.8.6z"/></g><g id="g56" transform="translate(31 12)"><path id="path58" class="st10" d="M76 .4l.8-.6 1.9 2.3-.8.6L76 .4z"/></g><g id="g60" transform="translate(31.7 26.7)"><path id="path62" class="st10" d="M76 .4l-.8-.6 1.9-2.3.8.6L76 .4z"/></g><g id="g64" transform="translate(31 27.5)"><path id="path66" class="st10" d="M76 .4l-1.9 2.3-.8-.6 1.9-2.3.8.6z"/></g><g id="g68" transform="translate(31.4 22.5)"><path id="path70" class="st10" d="M76 .4l-4.5 5.4.8.6L76.8 1 76 .4z"/></g><g id="g72" transform="translate(28 25)"><path id="path74" class="st10" d="M76 .4l-1.9 2.3-.8-.6 1.9-2.3.8.6z"/></g><g id="g76" transform="translate(28.7 24.2)"><path id="path78" class="st10" d="M76 .4l-.8-.6 1.9-2.3.8.6L76 .4z"/></g><g id="g80" transform="translate(11.9 10.8)"><path id="path82" class="st10" d="M76 .4l-4.5 5.4.8.6L76.8 1 76 .4z"/></g><g id="g84" transform="translate(8.6 13.2)"><path id="path86" class="st10" d="M76 .4l-1.9 2.3-.8-.6 1.9-2.3.8.6z"/></g><g id="g88" transform="translate(9.2 12.4)"><path id="path90" class="st10" d="M76 .4l-.8-.6 1.9-2.3.8.6L76 .4z"/></g><g id="g92" transform="translate(8.8 8.2)"><path id="path94" class="st10" d="M76 .4l-4.5 5.4.8.6L76.8 1 76 .4z"/></g><g id="g96" transform="translate(9.6 29.1)"><path id="path98" class="st10" d="M76 .4L71.5-5l-.8.6L75.2 1l.8-.6z"/></g><g id="g100" transform="translate(11.1 27.9)"><path id="path102" class="st10" d="M76 .4L71.5-5l-.8.6L75.2 1l.8-.6z"/></g><g id="g104" transform="translate(12.7 26.6)"><path id="path106" class="st10" d="M76 .4L71.5-5l-.8.6L75.2 1l.8-.6z"/></g></g></g></g><g id="g10_3_" transform="matrix(1.25 0 0 -1.25 0 47.5)"><g id="g12_3_"><defs><path id="SVGID_7_" d="M109.2-4.3h47.5v47.5h-47.5z"/></defs><clipPath id="SVGID_8_"><use xlink:href="#SVGID_7_" overflow="visible"/></clipPath><g id="g14_3_" clip-path="url(#SVGID_8_)"><g id="g20_3_" transform="translate(36 5)"><path id="path22_3_" class="st12" d="M114 .4c0-2.2-1.8-3-4-3h-7c-2.2 0-4 .8-4 3v5c0 2.2 1.8 8 4 8h7c2.2 0 4-5.8 4-8v-5z"/></g></g></g><g id="g24_3_"><defs><path id="SVGID_9_" d="M139 18.4c-2.2 0-4-5.8-4-8v-5c0-2.2 1.8-3 4-3h7c2.2 0 4 .8 4 3v5c0 2.2-1.8 8-4 8h-7z"/></defs><clipPath id="SVGID_10_"><use xlink:href="#SVGID_9_" overflow="visible"/></clipPath><g id="g26" clip-path="url(#SVGID_10_)"><g id="g32_2_" transform="translate(29 8)"><path id="path34_2_" d="M114 .4v4c3 1 3 3 3 5h-7c0-2 0-4 3-5v-4c0-1-1-3-3-3 0-11.9 2.1-7.2 3.4-5.5 1.2-2.5 3.6-12.2 3.6 5.5-2 0-3 2-3 3" fill="#744eaa"/></g></g></g><g id="g36_1_"><defs><path id="SVGID_11_" d="M109.2-4.3h47.5v47.5h-47.5z"/></defs><clipPath id="SVGID_12_"><use xlink:href="#SVGID_11_" overflow="visible"/></clipPath><g id="g38" clip-path="url(#SVGID_12_)"><g id="g44_1_" transform="translate(37 25)"><path id="path46_1_" class="st10" d="M114 .4v-6c0-3-6.6 0-8.5 0-2.1 0-8.5-3-8.5 0v6c0 4.4 3.8 8 8.5 8s8.5-3.6 8.5-8"/></g><g id="g48_1_" transform="translate(35 22)"><path id="path50_1_" class="st16" d="M114 .4c0-3-1-7-6.5-7s-6.5 3-6.5 7h13z"/></g><g id="g52_1_" transform="translate(30 17.5)"><path id="path54_1_" class="st17" d="M114 .4c0-.3-.7-.5-1.5-.5s-1.5.2-1.5.5.7.5 1.5.5 1.5-.2 1.5-.5"/></g><g id="g56_1_" transform="translate(23.1 20.6)"><path id="path58_1_" class="st10" d="M114 .4c.9.1 2.5.5 3.3-.3.4-.3.1-1-.6-.7-.7.3-2.2.4-2.8.4-.5.1-.6.5.1.6"/></g><g id="g60_1_" transform="translate(34.1 20.6)"><path id="path62_1_" class="st10" d="M114 .4c-.9.1-2.5.5-3.3-.3-.4-.3-.1-1 .6-.7.7.3 2.2.4 2.8.4.5.1.6.5-.1.6"/></g><g id="g64_1_" transform="translate(33 33)"><path id="path66_1_" class="st10" d="M114 .4c0-1.7-2-3-4.5-3s-4.5 1.3-4.5 3 2 3 4.5 3 4.5-1.3 4.5-3"/></g><g id="g68_1_" transform="translate(31.7 33)"><path id="path70_1_" class="st12" d="M114 .4l-3-2-3.2 2c-1.8 1.2-3.5.4-3.5-1.8v-.3c0-2.2 1.8-3.1 3.6-1.9l3.1 1.7 2.9-1.7c1.9-1.1 3.4-.3 3.4 1.9v.3c0 2.2-1.5 3-3.3 1.8"/></g><g id="g72_1_" transform="translate(24 7)"><path id="path74_1_" class="st18" d="M114 .4c0-.6-.4-1-1-1s-1 .4-1 1 .4 1 1 1 1-.4 1-1"/></g><g id="g76_1_" transform="translate(27 11)"><path id="path78_1_" class="st18" d="M114 .4c0-.6-.4-1-1-1s-1 .4-1 1 .4 1 1 1 1-.4 1-1"/></g><g id="g80_1_" transform="translate(33 8)"><path id="path82_1_" class="st18" d="M114 .4c0-.6-.4-1-1-1s-1 .4-1 1 .4 1 1 1 1-.4 1-1"/></g><g id="g84_1_" transform="translate(34 12)"><path id="path86_1_" class="st18" d="M114 .4c0-.6-.4-1-1-1s-1 .4-1 1 .4 1 1 1 1-.4 1-1"/></g><g id="g88_1_" transform="translate(17 5)"><path id="path90_1_" class="st19" d="M114 .4c0-2.2-1.8-3-4-3h-7c-2.2 0-4 .8-4 3v5c0 2.2 1.8 8 4 8h7c2.2 0 4-5.8 4-8v-5z"/></g></g></g><g id="g92_1_"><defs><path id="SVGID_13_" d="M120 18.4c-2.2 0-4-5.8-4-8v-5c0-2.2 1.8-3 4-3h7c2.2 0 4 .8 4 3v5c0 2.2-1.8 8-4 8h-7z"/></defs><clipPath id="SVGID_14_"><use xlink:href="#SVGID_13_" overflow="visible"/></clipPath><g id="g94" clip-path="url(#SVGID_14_)"><g id="g100_1_" transform="translate(10 8)"><path id="path102_1_" class="st17" d="M114 .4v4c3 1 3 3 3 5h-7c0-2 0-4 3-5v-4c0-1-1-3-3-3 0-11.9 2.1-7.2 3.4-5.5 1.2-2.5 3.6-12.2 3.6 5.5-2 0-3 2-3 3"/></g></g></g><g id="g104_1_"><defs><path id="SVGID_15_" d="M109.2-4.3h47.5v47.5h-47.5z"/></defs><clipPath id="SVGID_16_"><use xlink:href="#SVGID_15_" overflow="visible"/></clipPath><g id="g106" clip-path="url(#SVGID_16_)"><g id="g112" transform="translate(18 25)"><path id="path114" class="st10" d="M114 .4v-8c0-3-2 2-8.5 2s-8.5-5-8.5-2v8c0 4.4 3.8 8 8.5 8s8.5-3.6 8.5-8"/></g><g id="g116" transform="translate(16 22)"><path id="path118" class="st16" d="M114 .4c0-3-1-7-6.5-7s-6.5 3-6.5 7h13z"/></g><g id="g120" transform="translate(12 33.5)"><path id="path122" class="st10" d="M114 .4c0-1.9-1.1-3.5-2.5-3.5S109-1.5 109 .4s1.1 3.5 2.5 3.5S114 2.3 114 .4"/></g><g id="g124" transform="translate(11 17.5)"><path id="path126" class="st17" d="M114 .4c0-.3-.7-.5-1.5-.5s-1.5.2-1.5.5.7.5 1.5.5 1.5-.2 1.5-.5"/></g><g id="g128" transform="translate(6 12)"><path id="path130" class="st22" d="M114 .4c0-.6-.4-1-1-1s-1 .4-1 1 .4 1 1 1 1-.4 1-1"/></g><g id="g132" transform="translate(16 7)"><path id="path134" class="st22" d="M114 .4c0-.6-.4-1-1-1s-1 .4-1 1 .4 1 1 1 1-.4 1-1"/></g><g id="g136" transform="translate(13 11)"><path id="path138" class="st22" d="M114 .4c0-.6-.4-1-1-1s-1 .4-1 1 .4 1 1 1 1-.4 1-1"/></g><g id="g140" transform="translate(8 8)"><path id="path142" class="st22" d="M114 .4c0-.6-.4-1-1-1s-1 .4-1 1 .4 1 1 1 1-.4 1-1"/></g><g id="g144" transform="translate(4.1 20.6)"><path id="path146" class="st10" d="M114 .4c.9.1 2.5.5 3.3-.3.4-.3.1-1-.6-.7-.7.3-2.2.4-2.8.4-.5.1-.6.5.1.6"/></g><g id="g148" transform="translate(15.1 20.6)"><path id="path150" class="st10" d="M114 .4c-.9.1-2.5.5-3.3-.3-.4-.3-.1-1 .6-.7.7.3 2.2.4 2.8.4.5.1.6.5-.1.6"/></g></g></g></g><g id="g10_4_" transform="matrix(1.25 0 0 -1.25 0 47.5)"><g id="g12_4_"><defs><path id="SVGID_17_" d="M147.2-4.3h47.5v47.5h-47.5z"/></defs><clipPath id="SVGID_18_"><use xlink:href="#SVGID_17_" overflow="visible"/></clipPath><g id="g14_4_" clip-path="url(#SVGID_18_)"><g id="g20_4_" transform="translate(37 20.3)"><path id="path22_4_" class="st24" d="M152 .4c-.2-4.6-8.2-8.2-18-8.2-3.3 0-6.4.4-9 1.1v-3.6c2.6-1 5.7-1.6 9-1.6 9.9 0 18 5.4 18 12v.3"/></g><g id="g24_4_" transform="translate(28 30.4)"><path id="path26_3_" class="st24" d="M152 .4c-2.6 1-5.7 1.6-9 1.6-9 0-16.5-4.4-17.8-10.2C126.5-4.1 134-1 143-1c3.3 0 6.4-.4 9-1.1V.4z"/></g><g id="g28_3_" transform="translate(25.8 17.3)"><path id="path30_3_" class="st25" d="M152 .4c0 3.8-3 6.8-6.8 6.8a6.7 6.7 0 0 1-5.5-2.8 6.7 6.7 0 0 1-5.5 2.8c-3.8 0-6.8-3-6.8-6.8l.2-1.5c.9-5.9 7.5-12.1 12.1-13.8 4.7 1.7 11.2 7.9 12.1 13.8l.2 1.5"/></g><g id="g32_3_" transform="translate(36.9 31.3)"><path id="path34_3_" class="st25" d="M152 .4c0 2.6-2.1 4.7-4.7 4.7-1.6 0-3-.8-3.8-2-.9 1.2-2.2 2-3.8 2A4.7 4.7 0 0 1 135 .4l.1-1.1c.7-4.1 5.2-8.4 8.4-9.5 3.2 1.2 7.8 5.5 8.4 9.5l.1 1.1"/></g></g></g></g><g id="g10_5_" transform="matrix(1.25 0 0 -1.25 0 47.5)"><g id="g12_5_"><defs><path id="SVGID_19_" d="M185.2-4.3h47.5v47.5h-47.5z"/></defs><clipPath id="SVGID_20_"><use xlink:href="#SVGID_19_" overflow="visible"/></clipPath><g id="g14_5_" clip-path="url(#SVGID_20_)"><g id="g20_5_" transform="translate(19 16.7)"><path id="path22_5_" class="st22" d="M190 .4l-.6.7c-.2.2-.5.3-.9.3l.5.8.1.9.9-.2.9.2.1-.9.5-.8-.9-.3-.6-.7m13.3-.5c4.2 1.4 5 3.2 4.2 6.4-1-.3-2.1 0-2.3.5-.2.5.6 1.4 1.5 1.8-1.2 3.1-3 4.1-7.2 2.7-1.6-.5-3.2-1.5-4.7-2.6.6 1.7 1.1 3.6 1.1 5.2 0 4.4-1.5 5.8-4.8 6 0-1-.7-2-1.2-2s-1.2 1-1.2 2c-3.3-.2-4.8-1.6-4.8-6 0-1.7.4-3.5 1.1-5.2-1.4 1.1-3 2.1-4.7 2.6-4.2 1.4-5.9.4-7.2-2.7 1-.3 1.7-1.2 1.5-1.8-.2-.5-1.3-.8-2.3-.5-.8-3.2 0-5.1 4.2-6.4 1.6-.5 3.5-.7 5.3-.6-1.5-1-3-2.2-3.9-3.6-2.6-3.6-2.2-5.5.4-7.7.6.8 1.7 1.2 2.1.9.4-.3.4-1.5-.2-2.3 2.8-1.8 4.8-1.6 7.4 2 1 1.4 1.7 3.1 2.2 4.9.5-1.8 1.2-3.5 2.2-4.9 2.6-3.6 4.6-3.8 7.4-2-.6.8-.6 2-.2 2.3.4.3 1.6-.1 2.1-.9 2.6 2.1 3 4.1.4 7.7a15 15 0 0 1-3.9 3.6c2-.1 3.9.1 5.5.6"/></g><g id="g24_5_" transform="translate(17.8 18.3)"><path id="path26_4_" class="st27" d="M190 .4c-.1-.5-.7-.9-1.2-.8L182.9.9c-.5.1-.9.7-.8 1.2.1.5.7.9 1.2.8l5.9-1.3c.6-.1.9-.7.8-1.2"/></g><g id="g28_4_" transform="translate(18.8 18.1)"><path id="path30_4_" class="st27" d="M190 .4c.1.5.7.9 1.2.8l5.9-1.3c.5-.1.9-.7.8-1.2-.1-.5-.7-.9-1.2-.8l-5.9 1.3c-.6.1-.9.7-.8 1.2"/></g><g id="g32_4_" transform="translate(18.8 18.1)"><path id="path34_4_" class="st27" d="M190 .4c-.5-.3-1.1-.2-1.4.3l-3.2 5.1c-.3.5-.2 1.1.3 1.4.5.3 1.1.2 1.4-.3l3.2-5.1c.3-.5.2-1.1-.3-1.4"/></g><g id="g36_2_" transform="translate(19.6 16.8)"><path id="path38_1_" class="st27" d="M190 .4c.5.3 1.1.2 1.4-.3l3.2-5.1c.3-.5.2-1.1-.3-1.4-.5-.3-1.1-.2-1.4.3L189.7-1c-.3.5-.2 1.1.3 1.4"/></g><g id="g40_1_" transform="translate(19 19)"><path id="path42_1_" class="st27" d="M190 .4c-.5.1-.9.7-.8 1.2l1.3 5.9c.1.5.7.9 1.2.8s.9-.7.8-1.2l-1.3-5.9c-.1-.6-.7-.9-1.2-.8"/></g><g id="g44_2_" transform="translate(18.8 18.1)"><path id="path46_2_" class="st27" d="M190 .4c.5-.1.9-.7.8-1.2l-1.3-5.9c-.1-.5-.7-.9-1.2-.8-.5.1-.9.7-.8 1.2l1.3 5.9c.1.6.7.9 1.2.8"/></g><g id="g48_2_" transform="translate(18.8 18.1)"><path id="path50_2_" class="st27" d="M190 .4c-.3.5-.2 1.1.3 1.4l5.1 3.2c.5.3 1.1.2 1.4-.3.3-.5.2-1.1-.3-1.4L191.4.1c-.5-.3-1.1-.2-1.4.3"/></g><g id="g52_2_" transform="translate(18.8 18.1)"><path id="path54_2_" class="st27" d="M190 .4c.3-.5.2-1.1-.3-1.4l-5.1-3.2c-.5-.3-1.1-.2-1.4.3-.3.5-.2 1.1.3 1.4l5.1 3.2c.5.3 1.1.2 1.4-.3"/></g><g id="g56_2_" transform="translate(23 11.4)"><path id="path58_2_" class="st28" d="M190 .4a2 2 0 0 0 2.8-.6 2 2 0 0 0-.6-2.8 2 2 0 0 0-2.8.6 2 2 0 0 0 .6 2.8"/></g><g id="g60_2_" transform="translate(15.5 23.2)"><path id="path62_2_" class="st28" d="M190 .4c-.9-.6-2.2-.3-2.8.6s-.3 2.2.6 2.8a2 2 0 0 0 2.8-.6 2 2 0 0 0-.6-2.8"/></g><g id="g64_2_" transform="translate(17.5 12.2)"><path id="path66_2_" class="st28" d="M190 .4a2 2 0 0 0 1.5-2.4 2 2 0 0 0-2.4-1.5 2 2 0 0 0-1.5 2.4A2 2 0 0 0 190 .4"/></g><g id="g68_2_" transform="translate(20.5 26)"><path id="path70_2_" class="st28" d="M190 .4a2 2 0 0 0-1.5 2.4 2 2 0 0 0 2.4 1.5 2 2 0 0 0 1.5-2.4A2 2 0 0 0 190 .4"/></g><g id="g72_2_" transform="translate(14.5 15.4)"><path id="path74_2_" class="st28" d="M190 .4a2 2 0 0 0-.6-2.8 2 2 0 0 0-2.8.6 2 2 0 0 0 .6 2.8 2 2 0 0 0 2.8-.6"/></g><g id="g76_2_" transform="translate(23.8 21.3)"><path id="path78_2_" class="st28" d="M190 .4a2 2 0 0 0 .6 2.8 2 2 0 0 0 2.8-.6 2 2 0 0 0-.6-2.8 2 2 0 0 0-2.8.6"/></g><g id="g80_2_" transform="translate(24.6 16.8)"><path id="path82_2_" class="st28" d="M190 .4a2 2 0 0 0 2.4 1.5c1.1-.2 1.8-1.3 1.5-2.4s-1.3-1.8-2.4-1.5A2 2 0 0 0 190 .4"/></g><g id="g84_2_" transform="translate(12 19.6)"><path id="path86_2_" class="st28" d="M190 .4a2 2 0 0 0-2.4-1.5 2 2 0 0 0-1.5 2.4 2 2 0 0 0 2.4 1.5A2 2 0 0 0 190 .4"/></g><g id="g88_2_" transform="translate(23 18.2)"><path id="path90_2_" class="st29" d="M190 .4c0-2.2-1.8-4-4-4s-4 1.8-4 4 1.8 4 4 4 4-1.8 4-4"/></g></g></g></g><g id="g10_6_" transform="matrix(1.25 0 0 -1.25 0 47.5)"><g id="g12_6_" transform="translate(23 37)"><path id="path14" class="st30" d="M228 .4h3l5-2.8 5-23.3-9-.9-6 16.4"/></g><g id="g16" transform="translate(15 37)"><path id="path18" class="st30" d="M228 .4h-3l-5-2.8-5-23.3 9-.9 6 16.4"/></g><path id="path20" class="st30" d="M240 1.4h14v31h-14v-31z"/><g id="g22" transform="translate(19 28.2)"><path id="path24" class="st31" d="M228 .4l-7-5.2h2l5.1 5.1-.1.1z"/></g><g id="g26_1_"><defs><path id="SVGID_21_" d="M375.2-4.3h47.5v47.5h-47.5z"/></defs><clipPath id="SVGID_22_"><use xlink:href="#SVGID_21_" overflow="visible"/></clipPath><g id="g28_5_" clip-path="url(#SVGID_22_)"><g id="g34" transform="translate(26 17)"><path id="path36" d="M228 .4s-1.2-1-7-1-7 1-7 1v6h14v-6z" fill="#88c9f9"/></g><g id="g38_1_" transform="translate(26 19)"><path id="path40" class="st27" d="M228 .4s-1.2-1-7-1-7 1-7 1v2h14v-2z"/></g><g id="g42" transform="translate(26 37)"><path id="path44" class="st27" d="M228 .4l-7-9-7 9h14z"/></g><g id="g46" transform="translate(21.3 37)"><path id="path48" d="M228 .4l-2.3-3-2.3 3h4.6z" fill="#99aab5"/></g><g id="g50" transform="translate(26 12)"><path id="path52" class="st31" d="M228 .4v21l2-23-2 2z"/></g><g id="g54" transform="translate(12 12)"><path id="path56" class="st31" d="M228 .4v21l-2-23 2 2z"/></g></g></g></g><g id="g10_7_" transform="matrix(1.25 0 0 -1.25 0 47.5)"><g id="g12_7_"><defs><path id="SVGID_23_" d="M261.2-4.3h47.5v47.5h-47.5z"/></defs><clipPath id="SVGID_24_"><use xlink:href="#SVGID_23_" overflow="visible"/></clipPath><g id="g14_6_" clip-path="url(#SVGID_24_)"><g id="g20_6_" transform="translate(15 37)"><path id="path22_6_" d="M266 .4c-1.7 0-3.3-.4-4.8-1.1l-1.2.1a7 7 0 0 1-7-7v-12c.2-6.5 5.5-11.7 12-11.7s11.8 5.2 12 11.7v9a11 11 0 0 1-11 11" fill="#642116"/></g><g id="g24_6_" transform="translate(23 10)"><path id="path26_5_" class="st37" d="M266 .4h-18a4 4 0 0 1-4-4v-5h26v5a4 4 0 0 1-4 4"/></g><path id="path28" class="st38" d="M289 1.4h-1v4h1v-4z"/><path id="path30_5_" class="st38" d="M272 1.4h-1v4h1v-4z"/><g id="g32_5_" transform="translate(11 15)"><path id="path34_5_" class="st39" d="M266 .4v-6c0-1.7 1.3-3 3-3s3 1.3 3 3v6h-6z"/></g><g id="g36_3_" transform="translate(10 32)"><path id="path38_2_" class="st39" d="M266 .4s0-5.3-5-5.9v-6.1c0-5 4-9 9-9s9 4 9 9v5c-11.1.4-13 7-13 7"/></g><g id="g40_2_" transform="translate(18 15)"><path id="path42_2_" d="M266 .4h-8s1-2 4-2 4 2 4 2" fill="#bb1a34"/></g><g id="g44_3_" transform="translate(30 1)"><path id="path46_3_" class="st37" d="M266 .4h-7l1 17h6V.4z"/></g><g id="g48_3_" transform="translate(32.5 21.6)"><path id="path50_3_" class="st41" d="M266 .4c-.1.7-.8 1.1-1.5 1l-2.7-.6h-2.3a2 2 0 0 1-2-2v-2h5c1.1 0 2 .9 2 1.9l.4.1h.7v.2c.3.3.5.9.4 1.4"/></g><g id="g52_3_" transform="translate(37 21)"><path id="path54_3_" class="st39" d="M266 .4c0 .6-.4 1-1 1l-6-1h-5c-.6 0-1-.4-1-1v-2h6l6 2s1 .4 1 1"/></g><g id="g56_3_" transform="translate(15 17.5)"><path id="path58_3_" class="st41" d="M266 .4h-2c-.3 0-.5.2-.5.5s.2.5.5.5h2c.3 0 .5-.2.5-.5s-.2-.5-.5-.5"/></g><g id="g60_3_" transform="translate(10 21)"><path id="path62_3_" class="st10" d="M266 .4c-.6 0-1 .4-1 1v1c0 .6.4 1 1 1s1-.4 1-1v-1c0-.6-.4-1-1-1"/></g><g id="g64_3_" transform="translate(18 21)"><path id="path66_3_" class="st10" d="M266 .4c-.6 0-1 .4-1 1v1c0 .6.4 1 1 1s1-.4 1-1v-1c0-.6-.4-1-1-1"/></g></g></g></g><g id="g10_8_" transform="matrix(1.25 0 0 -1.25 0 47.5)"><g id="g12_8_"><defs><path id="SVGID_25_" d="M299.2-4.3h47.5v47.5h-47.5z"/></defs><clipPath id="SVGID_26_"><use xlink:href="#SVGID_25_" overflow="visible"/></clipPath><g id="g14_7_" clip-path="url(#SVGID_26_)"><g id="g20_7_" transform="translate(17.5 36.8)"><path id="path22_7_" class="st28" d="M304 .4c2.2 0 4.8-1.4 6.7-3.2 1.9-1.9 3.8-3.9 3.8-6V-26h-16v17.1c-.1 1.5 1.1 9.3 5.5 9.3"/></g><g id="g24_7_" transform="translate(20 25.6)"><path id="path26_6_" class="st19" d="M304 .4v-16.6c0-1.1.9 0 2 0v-2a2 2 0 0 1 2 2V-.5c-1.3 0-2.6.2-4 .9"/></g><g id="g28_6_" transform="translate(23 33.5)"><path id="path30_6_" class="st22" d="M304 .4c2.7-2.4 4.3-5.2 3-6.7-1.3-1.5-5.1-1-7.7 1.4-2.7 2.4-3.8 5.5-2.4 7 1.2 1.4 4.4.7 7.1-1.7"/></g><g id="g32_6_" transform="translate(31 3)"><path id="path34_6_" class="st29" d="M304 .4a2 2 0 0 0-2-2h-18a2 2 0 0 0-2 2v6c0 1.1.9 2 2 2h18a2 2 0 0 0 2-2v-6z"/></g><g id="g36_4_" transform="translate(32 3)"><path id="path38_3_" d="M304 .4a2 2 0 0 0-2-2h-20a2 2 0 0 0-2 2v1c0 1.1.9 2 2 2h20a2 2 0 0 0 2-2v-1z" fill="#ffac33"/></g></g></g></g><g id="g10_9_" transform="matrix(1.25 0 0 -1.25 0 47.5)"><g id="g12_9_"><defs><path id="SVGID_27_" d="M337.2-4.3h47.5v47.5h-47.5z"/></defs><clipPath id="SVGID_28_"><use xlink:href="#SVGID_27_" overflow="visible"/></clipPath><g id="g14_8_" clip-path="url(#SVGID_28_)"><g id="g20_8_" transform="translate(28 1)"><path id="path22_8_" class="st5" d="M342 .4v4s0 4 4 4 4-4 4-4v-4h-8z"/></g><g id="g24_8_" transform="translate(19 1)"><path id="path26_7_" class="st5" d="M342 .4v9s0 4 4 4 4-4 4-4v-9h-8z"/></g><g id="g28_7_" transform="translate(10 1)"><path id="path30_7_" class="st5" d="M342 .4v12s0 4 4 4 4-4 4-4V.4h-8z"/></g><g id="g32_7_" transform="translate(1 1)"><path id="path34_7_" class="st5" d="M342 .4v9s0 4 4 4 4-4 4-4v-9h-8z"/></g><g id="g36_5_" transform="translate(17 13)"><path id="path38_4_" class="st19" d="M342 .4c0 1.7 0 8-3 8s-3-6.3-3-8 1.3-3 3-3 3 1.3 3 3"/></g><g id="g40_3_" transform="translate(8 10)"><path id="path42_3_" class="st19" d="M342 .4c0 1.7 0 8-3 8s-3-6.3-3-8 1.3-3 3-3 3 1.3 3 3"/></g><g id="g44_4_" transform="translate(26 10)"><path id="path46_4_" class="st19" d="M342 .4c0 1.7 0 8-3 8s-3-6.3-3-8 1.3-3 3-3a3 3 0 0 1 3 3"/></g><g id="g48_4_" transform="translate(35 5)"><path id="path50_4_" class="st19" d="M342 .4c0 1.7 0 8-3 8s-3-6.3-3-8 1.3-3 3-3a3 3 0 0 1 3 3"/></g><g id="g52_4_" transform="translate(14 21)"><path id="path54_4_" class="st19" d="M342 .4v-4h2s2 0 6 4l-2 2s-2-2-6-2"/></g><g id="g56_4_" transform="translate(20 23)"><path id="path58_4_" class="st45" d="M342 .4l8 8 2-2-8-8-2 2z"/></g><g id="g60_4_" transform="translate(28 31)"><path id="path62_4_" class="st45" d="M342 .4s-2 2 0 4l2 2h7v-5l-3-3c-2-2-4 0-4 0l-2 2z"/></g></g></g></g><g id="g10_10_" transform="matrix(1.25 0 0 -1.25 0 47.5)"><g id="g12_10_"><defs><path id="SVGID_29_" d="M375.2-4.3h47.5v47.5h-47.5z"/></defs><clipPath id="SVGID_30_"><use xlink:href="#SVGID_29_" overflow="visible"/></clipPath><g id="g14_9_" clip-path="url(#SVGID_30_)"><g id="g20_9_" transform="translate(19.4 18.2)"><path id="path22_9_" d="M380 .4a1 1 0 0 0-.3-.7l-14-14a1 1 0 0 0-1.4 0 1 1 0 0 0 0 1.4l14 14c.4.4 1 .4 1.4 0 .2-.2.3-.4.3-.7" fill="#4289c1"/></g><g id="g24_9_" transform="translate(33.9 22.9)"><path id="path26_8_" class="st25" d="M380 .4c0 4.8-3.9 8.8-8.8 8.8a8.9 8.9 0 0 1-7.1-3.7 8.9 8.9 0 0 1-7.1 3.7 8.8 8.8 0 0 1-8.6-10.8c1.2-7.6 9.6-15.5 15.6-17.7 6 2.2 14.4 10.2 15.6 17.7.3.6.4 1.3.4 2"/></g><g id="g28_8_" transform="translate(30.6 35.7)"><path id="path30_8_" class="st3" d="M380 .4c.3-.4.6-1.3.6-1.9a9 9 0 0 0-2.4-6.3l-3.9-3c-.3-.3-.8-.4-1.1-.2-.4.1-.8-.7-.8-.3v5.1c0 1.9 3.7 6.3 3.7 6.3.8.8 1.7 1.2 2.4 1.2.6-.1 1.1-.4 1.5-.9"/></g><g id="g32_8_" transform="translate(36.6 29.1)"><path id="path34_8_" class="st3" d="M380 .4c0-.8-.4-1.8-1.2-2.7 0 0-4.5-4.5-6.4-4.5h-5.2c-.4 0 .5.9.4 1.3-.1.4-.1 1.1.2 1.4l3.1 3.3a11 11 0 0 0 6.6 3.1c.7 0 1.3-.1 1.7-.4.5-.4.8-.9.8-1.5"/></g><g id="g36_6_" transform="translate(33.4 32.2)"><path id="path38_5_" class="st48" d="M380 .4a1 1 0 0 0-.3-.7l-15-15a1 1 0 0 0-1.4 0 1 1 0 0 0 0 1.4l15 15c.4.4 1 .4 1.4 0 .2-.2.3-.4.3-.7"/></g><g id="g40_4_" transform="translate(2.8 1.5)"><path id="path42_4_" class="st48" d="M380 .4a1 1 0 0 0-.7.3c-.3.2-.4.6-.3 1l1.6 6.5c.1.5.5.7 1 .8a1 1 0 0 0 1-.8c0-.1.8-3.6 4.1-4 .5-.1.8-.4.9-.9 0-.5-.3-.9-.7-1L380.4.5l-.4-.1"/></g><g id="g44_5_" transform="translate(18.4 12.5)"><path id="path46_5_" d="M380 .4c-.5 0-.9.4-1 .9-.5 3.2-2.4 3.6-4.2 4l-.4.1a1 1 0 0 0-.8 1.2c.1.5.6.9 1.2.8l.4-.1c1.9-.4 5.1-1 5.8-5.6.1-.5-.3-1.1-.8-1.1l-.2-.2" fill="#da2f47"/></g></g></g></g><g id="g10_11_" transform="matrix(1.25 0 0 -1.25 0 47.5)"><g id="g12_11_"><defs><path id="SVGID_31_" d="M413.2-4.3h47.5v47.5h-47.5z"/></defs><clipPath id="SVGID_32_"><use xlink:href="#SVGID_31_" overflow="visible"/></clipPath><g id="g14_10_" clip-path="url(#SVGID_32_)"><g id="g20_10_" transform="translate(37 5)"><path id="path22_10_" class="st30" d="M418 .4a4 4 0 0 0-4-4h-28a4 4 0 0 0-4 4v28a4 4 0 0 0 4 4h28a4 4 0 0 0 4-4V.4z"/></g><g id="g24_10_" transform="translate(17.5 25.8)"><path id="path26_9_" class="st27" d="M418 .4h-1.8c-1.5 0-2.1 1.1-2.1 2.1a2 2 0 0 0 2.1 2.1h4.4c1.3 0 2.1-1 2.1-2.2v-17.6c0-1.6-1-2.4-2.3-2.4-1.3 0-2.3.9-2.3 2.4V.4z"/></g></g></g></g><g id="g10_12_" transform="matrix(1.25 0 0 -1.25 0 47.5)"><g id="g12_12_"><defs><path id="SVGID_33_" d="M450.9-4.3h47.5v47.5h-47.5z"/></defs><clipPath id="SVGID_34_"><use xlink:href="#SVGID_33_" overflow="visible"/></clipPath><g id="g14_11_" clip-path="url(#SVGID_34_)"><g id="g20_11_" transform="translate(37 5)"><path id="path22_11_" class="st30" d="M455.6.4a4 4 0 0 0-4-4h-28a4 4 0 0 0-4 4v28a4 4 0 0 0 4 4h28a4 4 0 0 0 4-4V.4z"/></g><g id="g24_11_" transform="translate(22.4 19)"><path id="path26_10_" class="st27" d="M455.6.4c0 2.4-.2 7.2-3.4 7.2-3.2 0-3.4-4.8-3.4-7.2 0-2.2.2-7.2 3.4-7.2 3.2 0 3.4 5 3.4 7.2M444 .4c0 5.1 2 11.4 8.2 11.4 6.3 0 8.2-6.4 8.2-11.4s-2-11.4-8.2-11.4C446-11 444-4.7 444 .4"/></g></g></g></g></svg>