<?xml version="1.0" encoding="utf-8"?>
<!-- Generator: Adobe Illustrator 22.0.1, SVG Export Plug-In . SVG Version: 6.00 Build 0)  -->
<svg version="1.1" id="Layer_1" xmlns="http://www.w3.org/2000/svg" xmlns:xlink="http://www.w3.org/1999/xlink" x="0px" y="0px"
	 viewBox="0 0 4275 475" style="enable-background:new 0 0 4275 475;" xml:space="preserve">
<style type="text/css">
	.st0{clip-path:url(#SVGID_2_);}
	.st1{fill:#EEEEEE;}
	.st2{fill:#003478;}
	.st3{fill:#C60C30;}
	.st4{fill:#292F33;}
	.st5{clip-path:url(#SVGID_4_);}
	.st6{fill:#F2ABBA;}
	.st7{fill:#E75A70;}
	.st8{fill:#3B88C3;}
	.st9{fill:#226699;}
	.st10{clip-path:url(#SVGID_6_);}
	.st11{fill:#88C9F9;}
	.st12{fill:#FFFFFF;}
	.st13{fill:#99AAB5;}
	.st14{clip-path:url(#SVGID_8_);}
	.st15{fill:#642116;}
	.st16{fill:#9268CA;}
	.st17{fill:#7450A8;}
	.st18{fill:#D79E84;}
	.st19{fill:#BB1A34;}
	.st20{fill:#BF6952;}
	.st21{clip-path:url(#SVGID_10_);}
	.st22{fill:#EA596E;}
	.st23{fill:#DD2E44;}
	.st24{fill:#F4ABBA;}
	.st25{fill:#FFCC4D;}
	.st26{fill:#FFAC33;}
	.st27{clip-path:url(#SVGID_12_);}
	.st28{fill:#D99E82;}
	.st29{fill:#8899A6;}
	.st30{clip-path:url(#SVGID_14_);}
	.st31{fill:#4289C1;}
	.st32{fill:#5DADEC;}
	.st33{fill:#2A6797;}
	.st34{fill:#DA2F47;}
	.st35{clip-path:url(#SVGID_16_);}
	.st36{clip-path:url(#SVGID_18_);}
	.st37{fill:#AA8ED6;}
	.st38{fill:#FCAB40;}
</style>
<g id="g10" transform="matrix(1.25,0,0,-1.25,0,47.5)">
	<g id="g12">
		<g>
			<defs>
				<rect id="SVGID_1_" x="-48.3" y="-388.5" width="475.4" height="475.4"/>
			</defs>
			<clipPath id="SVGID_2_">
				<use xlink:href="#SVGID_1_"  style="overflow:visible;"/>
			</clipPath>
			<g id="g14" class="st0">
				<g id="g20" transform="translate(37,10)">
					<path id="path22" class="st1" d="M332.6-250.9c0-22.1-17.9-40-40-40H12.3c-22.1,0-40,17.9-40,40v180.2c0,22.1,17.9,40,40,40
						h280.3c22.1,0,40-17.9,40-40V-250.9z"/>
				</g>
				<g id="g24" transform="translate(19,19)">
					<path id="path26" class="st2" d="M170.4-169.8"/>
				</g>
				<g id="g28" transform="translate(22.4414,23.915)">
					<path id="path30" class="st3" d="M201.4-125.5c-27.2,19-64.6,12.4-83.6-14.8c-9.5-13.6-6.2-32.3,7.4-41.8
						c13.6-9.5,32.3-6.2,41.8,7.4c9.5,13.6,28.2,16.9,41.8,7.4c13.6-9.5,16.9-28.2,7.4-41.8C235.2-182,228.6-144.6,201.4-125.5"/>
				</g>
				<g id="g32" transform="translate(23.1777,19.7363)">
					<path id="path34" class="st2" d="M208.1-163.2c-13.6,9.5-32.3,6.2-41.8-7.4c-9.5-13.6-28.2-16.9-41.8-7.4
						c-13.6,9.5-16.9,28.3-7.4,41.8c-19-27.2-12.4-64.6,14.7-83.6c27.2-19,64.6-12.4,83.6,14.7C225-191.4,221.7-172.7,208.1-163.2"
						/>
				</g>
				<g id="g36" transform="translate(27.2637,13.7246)">
					<path id="path38" class="st4" d="M244.9-217.3l-19.3-23l7.7-6.4l19.3,23L244.9-217.3z"/>
				</g>
				<g id="g40" transform="translate(27.9063,14.4902)">
					<path id="path42" class="st4" d="M250.7-210.4l7.7-6.4l19.3,23l-7.7,6.4L250.7-210.4z"/>
				</g>
				<g id="g44" transform="translate(28.7949,12.4385)">
					<path id="path46" class="st4" d="M258.7-228.9l-19.3-23l7.7-6.4l19.3,23L258.7-228.9z"/>
				</g>
				<g id="g48" transform="translate(29.4375,13.2051)">
					<path id="path50" class="st4" d="M264.5-222l7.7-6.4l19.3,23l-7.7,6.4L264.5-222z"/>
				</g>
				<g id="g52" transform="translate(30.3271,11.1523)">
					<path id="path54" class="st4" d="M272.5-240.5l-19.3-23l7.7-6.4l19.3,23L272.5-240.5z"/>
				</g>
				<g id="g56" transform="translate(30.9697,11.9189)">
					<path id="path58" class="st4" d="M278.3-233.6l7.7-6.4l19.3,23l-7.7,6.4L278.3-233.6z"/>
				</g>
				<g id="g60" transform="translate(31.7363,26.7246)">
					<path id="path62" class="st4" d="M285.2-100.2l-7.7-6.4l19.3-23l7.7,6.4L285.2-100.2z"/>
				</g>
				<g id="g64" transform="translate(31.0938,27.4902)">
					<path id="path66" class="st4" d="M279.4-93.3l-19.3,23l-7.7-6.4l19.3-23L279.4-93.3z"/>
				</g>
				<g id="g68" transform="translate(31.3672,22.498)">
					<path id="path70" class="st4" d="M281.9-138.3l-45,53.7l7.7,6.4l45-53.7L281.9-138.3z"/>
				</g>
				<g id="g72" transform="translate(28.0293,24.9199)">
					<path id="path74" class="st4" d="M251.8-116.5l-19.3,23l-7.7-6.4l19.3-23L251.8-116.5z"/>
				</g>
				<g id="g76" transform="translate(28.6719,24.1533)">
					<path id="path78" class="st4" d="M257.6-123.4l-7.7-6.4l19.3-23l7.7,6.4L257.6-123.4z"/>
				</g>
				<g id="g80" transform="translate(11.8994,10.7822)">
					<path id="path82" class="st4" d="M106.5-243.8l-45,53.7l7.7,6.4l45-53.7L106.5-243.8z"/>
				</g>
				<g id="g84" transform="translate(8.562,13.2041)">
					<path id="path86" class="st4" d="M76.4-222l-19.3,23l-7.7-6.4l19.3-23L76.4-222z"/>
				</g>
				<g id="g88" transform="translate(9.2046,12.4385)">
					<path id="path90" class="st4" d="M82.2-228.9l-7.7-6.4l19.3-23l7.7,6.4L82.2-228.9z"/>
				</g>
				<g id="g92" transform="translate(8.835,8.2119)">
					<path id="path94" class="st4" d="M78.9-267l-45,53.7l7.7,6.4l45-53.7L78.9-267z"/>
				</g>
				<g id="g96" transform="translate(9.5996,29.146)">
					<path id="path98" class="st4" d="M85.7-78.4l-45-53.7l-7.7,6.4l45,53.7L85.7-78.4z"/>
				</g>
				<g id="g100" transform="translate(11.1328,27.8604)">
					<path id="path102" class="st4" d="M99.6-90l-45-53.7l-7.7,6.4l45,53.7L99.6-90z"/>
				</g>
				<g id="g104" transform="translate(12.6641,26.5747)">
					<path id="path106" class="st4" d="M113.4-101.6l-45-53.7l-7.7,6.4l45,53.7L113.4-101.6z"/>
				</g>
			</g>
		</g>
	</g>
</g>
<g id="g10_1_" transform="matrix(1.25,0,0,-1.25,0,47.5)">
	<g id="g12_1_">
		<g>
			<defs>
				<rect id="SVGID_3_" x="332.1" y="-388.5" width="475.4" height="475.4"/>
			</defs>
			<clipPath id="SVGID_4_">
				<use xlink:href="#SVGID_3_"  style="overflow:visible;"/>
			</clipPath>
			<g id="g14_1_" class="st5">
				<g id="g20_1_" transform="translate(36.9766,20.3281)">
					<path id="path22_1_" class="st6" d="M712.7-157.8c-2.5-45.8-82-82.6-179.9-82.6c-32.9,0-63.6,4.2-90.1,11.5v-35.9
						c26.5-10.2,57.2-16.2,90.1-16.2c99.5,0,180.2,53.8,180.2,120.1C713-159.9,712.8-158.9,712.7-157.8"/>
				</g>
				<g id="g24_1_" transform="translate(28,30.4004)">
					<path id="path26_1_" class="st6" d="M631.9-67.1c-26.5,10.2-57.2,16.2-90.1,16.2c-90.3,0-164.8-44.3-177.9-102
						c13.1,40.7,87.6,72,177.9,72c32.9,0,63.6-4.2,90.1-11.4V-67.1z"/>
				</g>
				<g id="g28_1_" transform="translate(25.7695,17.2852)">
					<path id="path30_1_" class="st7" d="M611.8-185.3c0,37.6-30.5,68.1-68.1,68.1c-22.8,0-43-11.3-55.3-28.5
						c-12.4,17.2-32.5,28.5-55.3,28.5c-37.6,0-68.1-30.5-68.1-68.1c0-5.3,0.7-10.5,1.8-15.5c9.5-58.7,74.7-120.7,121.6-137.7
						c46.8,17,112.1,79,121.5,137.7C611.1-195.8,611.8-190.6,611.8-185.3"/>
				</g>
				<g id="g32_1_" transform="translate(36.8848,31.3066)">
					<path id="path34_1_" class="st7" d="M711.9-58.9c0,26-21.1,47.2-47.2,47.2c-15.8,0-29.8-7.8-38.3-19.7
						c-8.6,11.9-22.5,19.7-38.3,19.7c-26,0-47.2-21.1-47.2-47.2c0-3.7,0.5-7.3,1.3-10.7c6.5-40.7,51.8-83.6,84.2-95.4
						c32.4,11.8,77.7,54.7,84.2,95.4C711.4-66.2,711.9-62.6,711.9-58.9"/>
				</g>
			</g>
		</g>
	</g>
</g>
<g id="g10_2_" transform="matrix(1.25,0,0,-1.25,0,47.5)">
	<g id="g12_2_" transform="translate(23,37)">
		<path id="path14" class="st8" d="M967.2-7.6h30l50-28.1l50-233.3l-90.1-8.9l-60.1,164.4"/>
	</g>
	<g id="g16" transform="translate(15,37)">
		<path id="path18" class="st8" d="M895.1-7.6h-30l-50-28.1L765-269l90.1-8.9l60.1,164.4"/>
	</g>
	<path id="path20" class="st8" d="M880.1-331h140.1v310.3H880.1V-331z"/>
	<g id="g22" transform="translate(18.9849,28.2388)">
		<path id="path24" class="st9" d="M931-86.6L861.1-139h20l51,51L931-86.6z"/>
	</g>
	<g id="g26">
		<g>
			<defs>
				<rect id="SVGID_5_" x="712.4" y="-388.5" width="475.4" height="475.4"/>
			</defs>
			<clipPath id="SVGID_6_">
				<use xlink:href="#SVGID_5_"  style="overflow:visible;"/>
			</clipPath>
			<g id="g28_2_" class="st10">
				<g id="g34" transform="translate(26,17)">
					<path id="path36" class="st11" d="M994.2-187.8c0,0-11.7-10-70.1-10c-58.4,0-70.1,10-70.1,10v60.1h140.1V-187.8z"/>
				</g>
				<g id="g38" transform="translate(26,19)">
					<path id="path40" class="st12" d="M994.2-169.8c0,0-11.7-10-70.1-10c-58.4,0-70.1,10-70.1,10v20h70.1h70.1V-169.8z"/>
				</g>
				<g id="g42" transform="translate(26,37)">
					<path id="path44" class="st12" d="M994.2-7.6l-70.1-90.1L854.1-7.6H994.2z"/>
				</g>
				<g id="g46" transform="translate(21.333,37)">
					<path id="path48" class="st13" d="M952.1-7.6l-23.4-30l-23.4,30H952.1z"/>
				</g>
				<g id="g50" transform="translate(26,12)">
					<path id="path52" class="st9" d="M994.2-232.9v210.2l20-230.2L994.2-232.9z"/>
				</g>
				<g id="g54" transform="translate(12,12)">
					<path id="path56" class="st9" d="M868.1-232.9v210.2l-20-230.2L868.1-232.9z"/>
				</g>
			</g>
		</g>
	</g>
</g>
<g id="g10_3_" transform="matrix(1.25,0,0,-1.25,0,47.5)">
	<g id="g12_3_">
		<g>
			<defs>
				<rect id="SVGID_7_" x="1092.8" y="-388.5" width="475.4" height="475.4"/>
			</defs>
			<clipPath id="SVGID_8_">
				<use xlink:href="#SVGID_7_"  style="overflow:visible;"/>
			</clipPath>
			<g id="g14_2_" class="st14">
				<g id="g20_2_" transform="translate(15,37)">
					<path id="path22_2_" class="st15" d="M1275.4-7.6c-17.2,0-33.5-4.1-48-11.1c-3.9,0.7-8,1.1-12.1,1.1
						c-38.7,0-70.1-31.4-70.1-70.1v-120.1h0.2c1.8-64.7,54.8-116.7,119.9-116.7s118.1,51.9,119.9,116.7h0.2v90.1
						C1385.5-56.9,1336.2-7.6,1275.4-7.6"/>
				</g>
				<g id="g24_2_" transform="translate(23,10)">
					<path id="path26_2_" class="st16" d="M1347.5-250.9h-10h-160.1h-10c-22.1,0-40-17.9-40-40v-50h50h160.1h50v50
						C1387.6-268.8,1369.6-250.9,1347.5-250.9"/>
				</g>
				<path id="path28" class="st17" d="M1370.5-331h-10v40h10V-331z"/>
				<path id="path30_2_" class="st17" d="M1200.4-331h-10v40h10V-331z"/>
				<g id="g32_2_" transform="translate(11,15)">
					<path id="path34_2_" class="st18" d="M1239.4-205.8v-60.1c0-16.6,13.4-30,30-30c16.6,0,30,13.4,30,30v60.1H1239.4z"/>
				</g>
				<g id="g36_1_" transform="translate(10,32)">
					<path id="path38_1_" class="st18" d="M1230.4-52.7c0,0,0-53.1-50-59.4v-60.7c0-49.8,40.3-90.1,90.1-90.1
						c49.8,0,90.1,40.3,90.1,90.1v50.2C1249.3-118.8,1230.4-52.7,1230.4-52.7"/>
				</g>
				<g id="g40_1_" transform="translate(18,15)">
					<path id="path42_1_" class="st19" d="M1302.5-205.8h-40h-40c0,0,10-20,40-20C1292.5-225.9,1302.5-205.8,1302.5-205.8"/>
				</g>
				<g id="g44_1_" transform="translate(30,1)">
					<path id="path46_1_" class="st16" d="M1410.6-332h-70.1l10,170.2h60.1V-332z"/>
				</g>
				<g id="g48_1_" transform="translate(32.541,21.5566)">
					<path id="path50_1_" class="st20" d="M1433.5-146.8c-1.4,6.9-8.2,11.4-15.2,10l-26.8-5.5H1368c-11.1,0-20-9-20-20v-10v-10h50
						c10.8,0,19.5,8.6,19.9,19.3l3.6,0.7h6.5c0,0.8-0.3,1.4-0.5,2.2C1432.1-157.4,1434.6-152.2,1433.5-146.8"/>
				</g>
				<g id="g52_1_" transform="translate(37,21)">
					<path id="path54_1_" class="st18" d="M1473.6-151.8c0,5.5-4.5,10-10,10l-60.1-10h-50c-5.5,0-10-4.5-10-10v-20h20h40l60.1,20
						C1463.6-161.8,1473.6-157.3,1473.6-151.8"/>
				</g>
				<g id="g56_1_" transform="translate(15,17.5)">
					<path id="path58_1_" class="st20" d="M1275.4-183.3h-20c-2.8,0-5,2.2-5,5c0,2.8,2.2,5,5,5h20c2.8,0,5-2.2,5-5
						C1280.4-181.1,1278.2-183.3,1275.4-183.3"/>
				</g>
				<g id="g60_1_" transform="translate(10,21)">
					<path id="path62_1_" class="st4" d="M1230.4-151.8c-5.5,0-10,4.5-10,10v10c0,5.5,4.5,10,10,10c5.5,0,10-4.5,10-10v-10
						C1240.4-147.3,1235.9-151.8,1230.4-151.8"/>
				</g>
				<g id="g64_1_" transform="translate(18,21)">
					<path id="path66_1_" class="st4" d="M1302.5-151.8c-5.5,0-10,4.5-10,10v10c0,5.5,4.5,10,10,10c5.5,0,10-4.5,10-10v-10
						C1312.5-147.3,1308-151.8,1302.5-151.8"/>
				</g>
			</g>
		</g>
	</g>
</g>
<g id="g10_4_" transform="matrix(1.25,0,0,-1.25,0,47.5)">
	<g id="g12_4_">
		<g>
			<defs>
				<rect id="SVGID_9_" x="1473.1" y="-388.5" width="475.4" height="475.4"/>
			</defs>
			<clipPath id="SVGID_10_">
				<use xlink:href="#SVGID_9_"  style="overflow:visible;"/>
			</clipPath>
			<g id="g14_3_" class="st21">
				<g id="g20_3_" transform="translate(17.522,36.7676)">
					<path id="path22_3_" class="st22" d="M1678.5-9.7c22.5,0,48.4-13.8,67.1-32.5c18.7-18.8,37.8-39.3,37.8-60v-172.2l-159.9-0.3
						v171.5C1622.6-88.2,1634.3-9.7,1678.5-9.7"/>
				</g>
				<g id="g24_3_" transform="translate(20,25.6221)">
					<path id="path26_3_" class="st23" d="M1700.8-110.1v-166.4c0-11.1,9,0,20,0v-20c11.1,0,20,9,20,20v156.8
						C1728.3-118.7,1714.4-117.1,1700.8-110.1"/>
				</g>
				<g id="g28_3_" transform="translate(23.0723,33.5454)">
					<path id="path30_3_" class="st24" d="M1728.5-38.8c26.7-23.9,42.8-52.4,29.6-67.1c-13.2-14.7-50.6-9.9-77.3,14
						c-26.6,23.9-37.6,55.2-24.4,69.8C1669.6-7.3,1701.9-14.8,1728.5-38.8"/>
				</g>
				<g id="g32_3_" transform="translate(31,3)">
					<path id="path34_3_" class="st25" d="M1799.9-314c0-11.1-9-20-20-20h-180.2c-11.1,0-20,9-20,20v60.1c0,11.1,9,20,20,20h180.2
						c11.1,0,20-9,20-20V-314z"/>
				</g>
				<g id="g36_2_" transform="translate(32,3)">
					<path id="path38_2_" class="st26" d="M1808.9-314c0-11.1-9-20-20-20h-200.2c-11.1,0-20,9-20,20v10c0,11.1,9,20,20,20h200.2
						c11.1,0,20-9,20-20V-314z"/>
				</g>
			</g>
		</g>
	</g>
</g>
<g id="g10_5_" transform="matrix(1.25,0,0,-1.25,0,47.5)">
	<g id="g12_5_">
		<g>
			<defs>
				<rect id="SVGID_11_" x="1853.5" y="-388.5" width="475.4" height="475.4"/>
			</defs>
			<clipPath id="SVGID_12_">
				<use xlink:href="#SVGID_11_"  style="overflow:visible;"/>
			</clipPath>
			<g id="g14_4_" class="st27">
				<g id="g20_4_" transform="translate(28,1)">
					<path id="path22_4_" class="st28" d="M2153.3-332v40c0,0,0,40,40,40s40-40,40-40v-40H2153.3z"/>
				</g>
				<g id="g24_4_" transform="translate(19,1)">
					<path id="path26_4_" class="st28" d="M2072.2-332v90.1c0,0,0,40,40,40c40,0,40-40,40-40V-332H2072.2z"/>
				</g>
				<g id="g28_4_" transform="translate(10,1)">
					<path id="path30_4_" class="st28" d="M1991.1-332v120.1c0,0,0,40,40,40c40,0,40-40,40-40V-332H1991.1z"/>
				</g>
				<g id="g32_4_" transform="translate(1,1)">
					<path id="path34_4_" class="st28" d="M1910-332v90.1c0,0,0,40,40,40c40,0,40-40,40-40V-332H1910z"/>
				</g>
				<g id="g36_3_" transform="translate(17.0005,13)">
					<path id="path38_3_" class="st23" d="M2054.2-223.9c0,16.6,0,80.1-30,80.1c-30,0-30-63.5-30-80.1s13.4-30,30-30
						C2040.7-253.9,2054.2-240.4,2054.2-223.9"/>
				</g>
				<g id="g40_2_" transform="translate(8.0005,10)">
					<path id="path42_2_" class="st23" d="M1973.1-250.9c0,16.6,0,80.1-30,80.1c-30,0-30-63.5-30-80.1s13.4-30,30-30
						S1973.1-267.5,1973.1-250.9"/>
				</g>
				<g id="g44_2_" transform="translate(26,10)">
					<path id="path46_2_" class="st23" d="M2135.2-250.9c0,16.6,0,80.1-30,80.1c-30,0-30-63.5-30-80.1s13.5-30,30-30
						C2121.8-280.9,2135.2-267.5,2135.2-250.9"/>
				</g>
				<g id="g48_2_" transform="translate(35,5)">
					<path id="path50_2_" class="st23" d="M2216.3-295.9c0,16.6,0,80.1-30,80.1s-30-63.5-30-80.1c0-16.6,13.5-30,30-30
						C2202.9-326,2216.3-312.5,2216.3-295.9"/>
				</g>
				<g id="g52_2_" transform="translate(14,21)">
					<path id="path54_2_" class="st23" d="M2027.1-151.8v-40h20c0,0,20,0,60.1,40l-20,20C2087.2-131.8,2067.2-151.8,2027.1-151.8"/>
				</g>
				<g id="g56_2_" transform="translate(20,23)">
					<path id="path58_2_" class="st29" d="M2081.2-133.8l80.1,80.1l20-20l-80.1-80.1L2081.2-133.8z"/>
				</g>
				<g id="g60_2_" transform="translate(28,31)">
					<path id="path62_2_" class="st29" d="M2153.3-61.7c0,0-20,20,0,40l20,20h70.1v-50l-30-30c-20-20-40,0-40,0L2153.3-61.7z"/>
				</g>
			</g>
		</g>
	</g>
</g>
<g id="g10_6_" transform="matrix(1.25,0,0,-1.25,0,47.5)">
	<g id="g12_6_">
		<g>
			<defs>
				<rect id="SVGID_13_" x="2233.8" y="-388.5" width="475.4" height="475.4"/>
			</defs>
			<clipPath id="SVGID_14_">
				<use xlink:href="#SVGID_13_"  style="overflow:visible;"/>
			</clipPath>
			<g id="g14_5_" class="st30">
				<g id="g20_5_" transform="translate(19.3887,18.1846)">
					<path id="path22_5_" class="st31" d="M2456-177.2c0-2.6-1.2-4.9-3.2-6.8l-140.1-140.1c-3.9-3.9-10.2-3.9-14.2,0
						c-3.9,3.9-3.9,10.2,0,14.2l140.1,140.1c3.9,3.9,10.4,3.8,14.3-0.1C2454.9-171.9,2456-174.6,2456-177.2"/>
				</g>
				<g id="g24_5_" transform="translate(33.8848,22.8867)">
					<path id="path26_5_" class="st7" d="M2586.6-134.8c0,48.5-39.3,87.7-87.7,87.7c-29.4,0-55.4-14.5-71.3-36.7
						c-15.9,22.2-41.9,36.7-71.3,36.7c-48.5,0-87.7-39.3-87.7-87.7c0-6.9,0.9-13.5,2.4-19.9c12.2-75.7,96.3-155.5,156.6-177.5
						c60.3,21.9,144.5,101.8,156.6,177.4C2585.8-148.3,2586.6-141.7,2586.6-134.8"/>
				</g>
				<g id="g28_5_" transform="translate(30.624,35.7051)">
					<path id="path30_5_" class="st32" d="M2557.3-19.3c3.1-4.2,5.9-12.6,5.9-19.4c0-19.7-7.2-46.6-23.9-63.4l-38.8-29.6
						c-2.8-2.7-7.9-3.6-11.5-2.1c-3.6,1.5-8.1-7.3-8.1-3.4v50.6c0,18.7,36.9,63,36.9,63c8.4,7.7,16.8,11.8,24.4,11.8
						C2548.5-11.7,2553.7-14.4,2557.3-19.3"/>
				</g>
				<g id="g32_5_" transform="translate(36.6289,29.1455)">
					<path id="path34_5_" class="st32" d="M2611.3-78.4L2611.3-78.4c0-7.7-4.2-18.4-12.1-27c0,0-45.1-44.6-64.2-44.6h-51.7
						c-4,0,5.1,9.2,3.6,12.9c-1.5,3.6-0.7,11.3,2.1,14.1l31.3,32.7c17.1,17,46.2,31.2,66.3,31.2c6.9,0,12.6-1.2,16.8-4.3
						C2608.6-67,2611.3-72.1,2611.3-78.4"/>
				</g>
				<g id="g36_4_" transform="translate(33.3887,32.1855)">
					<path id="path38_4_" class="st33" d="M2582.2-51c0-2.6-1.2-4.9-3.2-6.8L2428.9-208c-3.9-3.9-10.2-3.9-14.2,0
						c-3.9,3.9-3.9,10.2,0,14.2l150.1,150.1c3.9,3.9,10.4,3.8,14.3-0.1C2581.1-45.8,2582.2-48.4,2582.2-51"/>
				</g>
				<g id="g40_3_" transform="translate(2.75,1.5342)">
					<path id="path42_3_" class="st33" d="M2306.1-327.2c-2.6,0-5.1,1-7,2.9c-2.5,2.5-3.6,6.1-2.7,9.6l16.3,65.5
						c1.1,4.5,5.2,7.3,9.9,7.6c4.7-0.1,8.6-3.4,9.6-7.9c0.3-1.4,8.3-36.4,40.5-40.1c4.8-0.6,8.5-4.4,8.8-9.2
						c0.4-4.8-2.8-9.2-7.4-10.4l-65.5-17.5C2307.9-327.1,2307-327.2,2306.1-327.2"/>
				</g>
				<g id="g44_3_" transform="translate(18.3735,12.4717)">
					<path id="path46_3_" class="st34" d="M2446.9-228.6c-4.9,0-9.2,3.6-9.9,8.5c-4.8,32.5-23.6,36.1-41.7,39.6l-4.2,0.8
						c-5.4,1.1-8.9,6.4-7.8,11.8c1.1,5.4,6.4,8.9,11.8,7.8l3.9-0.8c19-3.7,50.9-9.8,57.8-56.4c0.8-5.5-3-10.6-8.4-11.4
						C2447.9-228.6,2447.4-228.6,2446.9-228.6"/>
				</g>
			</g>
		</g>
	</g>
</g>
<g id="g10_7_" transform="matrix(1.25,0,0,-1.25,0,47.5)">
	<g id="g12_7_">
		<g>
			<defs>
				<rect id="SVGID_15_" x="2614.2" y="-388.5" width="475.4" height="475.4"/>
			</defs>
			<clipPath id="SVGID_16_">
				<use xlink:href="#SVGID_15_"  style="overflow:visible;"/>
			</clipPath>
			<g id="g14_6_" class="st35">
				<g id="g20_6_" transform="translate(22.4131,34.0532)">
					<path id="path22_6_" class="st28" d="M2863.6-34.2c-19.6,4.2-23.7-15.4-23.7-15.4l-31-115.8c-4.5-0.2-8.8-0.6-13.1-1.1
						l-20.6,105.2c0,0-1.9,19.9-21.8,18.1c-19.9-1.9-18-21.8-18-21.8l21.8-119.8h2.3h20h17.8h7.5h4.7h30c2.1,0,4.1-0.2,6.1-0.6
						L2879-57.9C2879-57.9,2883.2-38.3,2863.6-34.2"/>
				</g>
				<g id="g24_6_" transform="translate(31,14.917)">
					<path id="path26_6_" class="st28" d="M2941-206.6c0-10.6-8.6-19.2-19.2-19.2h-1.7c-10.6,0-19.2,8.6-19.2,19.2v41.7
						c0,10.6,8.6,19.2,19.2,19.2h1.7c10.6,0,19.2-8.6,19.2-19.2V-206.6z"/>
				</g>
				<g id="g28_6_" transform="translate(24,23)">
					<path id="path30_6_" class="st28" d="M2877.9-133.8c-11.1,0-20-9-20-20v-27.8c6.1-5.5,10-13.4,10-22.2c0-7.5-2.9-14.3-7.5-19.6
						c3.4-6.2,9.9-10.4,17.5-10.4c11.1,0,20,9,20,20v60.1C2897.9-142.7,2889-133.8,2877.9-133.8"/>
				</g>
				<g id="g32_6_" transform="translate(29.0625,12)">
					<path id="path34_6_" class="st28" d="M2923.5-232.9h-1.3c-10.2,0-19.3,5.3-24.5,13.2c-1.2-1.8-2.7-3.5-4.3-5
						c-0.5-0.5-1-0.9-1.6-1.3c-1.2-1-2.4-1.9-3.8-2.7c-0.7-0.4-1.3-0.8-2-1.1c-1.4-0.7-2.9-1.3-4.4-1.7c-0.7-0.2-1.3-0.5-2-0.6
						c-2.2-0.5-4.5-0.9-6.9-0.9c-2.4,0-4.6,0.4-6.8,0.9c-0.8,0.2-1.5,0.4-2.2,0.7c-1.4,0.4-2.7,1-4,1.6c-0.8,0.4-1.6,0.8-2.4,1.2
						c-1.6,1-3.2,2.1-4.6,3.4c-2,1.8-3.8,3.9-5.3,6.2l0,0c-2-1.2-4.7-4-14.8-4h-25.4c18.1-13.7,30.4-39.9,30.4-70.1c0-2.8-2.2-5-5-5
						c-2.8,0-5,2.2-5,5c0,38.6-21.9,70.1-48.8,70.1h-1.3c-2.8,0-5,2.2-5,5c0,2.8,2.2,5,5,5h15h40c11.1,0,20,9,20,20s-9,20-20,20
						h-80.1c-0.3,0-0.6-0.1-1-0.1c-0.7,0-1.4-0.1-2.2-0.2c-0.6-0.1-1.2-0.2-1.8-0.4c-0.6-0.2-1.3-0.4-1.9-0.6
						c-0.6-0.2-1.2-0.5-1.8-0.8c-0.6-0.3-1.1-0.6-1.7-0.9c-0.6-0.3-1.1-0.7-1.6-1.1c-0.5-0.4-1-0.8-1.5-1.2
						c-0.5-0.4-0.9-0.8-1.3-1.3c-0.5-0.5-0.9-1-1.3-1.5c-0.4-0.5-0.7-1-1.1-1.6c-0.3-0.6-0.6-1.1-0.9-1.7c-0.3-0.6-0.6-1.3-0.8-1.9
						c-0.1-0.3-0.3-0.6-0.4-0.9l-10.9-35.9c-1-3.4-4.8-18.7-4.1-21.9c0-48.1,47-98.2,104.2-98.2c65.4,0,118.5,52.4,120,117.4
						C2937.6-230,2930.9-232.9,2923.5-232.9"/>
				</g>
			</g>
		</g>
	</g>
</g>
<g id="g10_8_" transform="matrix(1.25,0,0,-1.25,0,47.5)">
	<g id="g12_8_">
		<g>
			<defs>
				<rect id="SVGID_17_" x="2994.5" y="-388.5" width="475.4" height="475.4"/>
			</defs>
			<clipPath id="SVGID_18_">
				<use xlink:href="#SVGID_17_"  style="overflow:visible;"/>
			</clipPath>
			<g id="g14_7_" class="st36">
				<g id="g20_7_" transform="translate(35.3467,20.1069)">
					<path id="path22_7_" class="st37" d="M3360.5-159.8l-89.1,33l-33.3,109c-1.3,4.2-5.2,7.1-9.6,7.1c-4.4,0-8.3-2.9-9.6-7.1
						l-33.3-109l-89.1-33c-3.9-1.5-6.5-5.2-6.5-9.4s2.6-7.9,6.5-9.4l89-33l33.3-112.3c1.3-4.3,5.2-7.2,9.6-7.2s8.3,2.9,9.6,7.2
						l33.3,112.3l89,33c3.9,1.4,6.5,5.2,6.5,9.4S3364.4-161.3,3360.5-159.8"/>
				</g>
				<g id="g24_7_" transform="translate(15.3472,9.1064)">
					<path id="path26_7_" class="st38" d="M3180.3-258.9l-23.2,8.6l-9,33c-1.2,4.4-5.1,7.4-9.7,7.4s-8.5-3-9.7-7.4l-9-33l-23.2-8.6
						c-3.9-1.5-6.5-5.2-6.5-9.4c0-4.2,2.6-7.9,6.5-9.4l23-8.5l9.1-36.3c1.1-4.4,5.1-7.6,9.7-7.6c4.6,0,8.6,3.1,9.7,7.6l9.1,36.3
						l23,8.5c3.9,1.5,6.5,5.2,6.5,9.4C3186.9-264.1,3184.3-260.4,3180.3-258.9"/>
				</g>
				<g id="g28_7_" transform="translate(11.0093,30.769)">
					<path id="path30_7_" class="st32" d="M3141.2-63.8l-23.7,8.8l-8.8,23.7c-1.5,3.9-5.2,6.5-9.4,6.5c-4.2,0-7.9-2.6-9.4-6.5
						l-8.8-23.7l-23.7-8.8c-3.9-1.5-6.5-5.2-6.5-9.4s2.6-7.9,6.5-9.4l23.7-8.8l8.8-23.7c1.5-3.9,5.2-6.5,9.4-6.5
						c4.2,0,7.9,2.6,9.4,6.5l8.8,23.7l23.7,8.8c3.9,1.5,6.5,5.2,6.5,9.4S3145.2-65.2,3141.2-63.8"/>
				</g>
			</g>
		</g>
	</g>
</g>
</svg>
