<svg xmlns="http://www.w3.org/2000/svg" width="100%" height="100%" viewBox="0 0 737 146"><path fill="#1D3C65" d="M20.782 139.269v-7.372c5.9 0 9.925-1.583 12.078-4.749 2.149-3.166 3.227-10.187 3.227-21.062V22.751c-2.212-3.379-4.426-5.699-6.638-6.96-2.213-1.259-5.104-1.888-8.667-1.888V6.896H81.53l65.171 92.366v-62.5c0-9.461-1.059-15.592-3.181-18.391-2.12-2.792-6.097-4.283-11.936-4.468V6.896h41.389v7.007c-6.206.369-10.4 2.164-12.583 5.391-2.18 3.227-3.273 9.235-3.273 18.024v101.95h-37.426L46.407 36.577v70.612c0 9.647 1.11 16.181 3.319 19.589 2.212 3.409 6.146 5.118 11.802 5.118v7.372H20.782zm216.72-115.873c0 4.302-2.167 7.759-6.498 10.369-4.332 2.616-10.217 3.92-17.653 3.92-7.438 0-13.319-1.305-17.652-3.92-4.334-2.609-6.5-6.066-6.5-10.369 0-4.425 2.182-7.959 6.545-10.6 4.362-2.64 10.233-3.965 17.607-3.965 7.312 0 13.165 1.336 17.56 4.012 4.392 2.672 6.591 6.192 6.591 10.553m148.228 117.35c-2.093-4.058-4.164-6.993-6.223-8.807-2.06-1.813-4.316-2.715-6.774-2.715-1.661 0-7.314 2.18-16.961 6.542-9.649 4.362-19.174 6.545-28.579 6.545-8.295 0-16.33-1.37-24.106-4.104-7.771-2.733-14.763-6.649-20.97-11.75-7.987-6.517-14.088-14.273-18.298-23.278-4.209-9.003-6.312-18.883-6.312-29.635 0-20.283 6.698-36.951 20.094-50.011 13.395-13.057 30.573-19.587 51.528-19.587 9.958 0 19.975 1.812 30.054 5.439 10.077 3.625 15.396 5.439 15.947 5.439 2.273 0 4.103-.679 5.482-2.029 1.388-1.351 2.538-3.627 3.459-6.821h9.77l.741 50.974h-9.773c-4.24-13.643-10.554-24.382-18.945-32.214-8.387-7.838-17.682-11.754-27.884-11.754-9.649 0-16.594 3.502-20.833 10.507-4.241 7.005-6.362 18.746-6.362 35.212v39.64c0 13.766 1.459 23.061 4.379 27.888 2.92 4.823 7.883 7.233 14.888 7.233 6.207 0 10.77-2.118 13.688-6.36 2.917-4.241 4.38-10.813 4.38-19.727V96.222c0-6.391-.633-10.28-1.891-11.663-1.261-1.384-3.765-2.073-7.51-2.073h-6.455V75.48h78.168v7.005h-5.62c-3.811 0-6.348.689-7.605 2.073-1.262 1.383-1.891 4.841-1.891 10.372v45.815h-9.586zm29.499-1.477v-7.188h6.176c3.749 0 6.269-.738 7.56-2.216 1.294-1.474 1.937-5.008 1.937-10.598V26.346c0-5.346-.634-8.725-1.892-10.141-1.259-1.41-3.794-2.117-7.604-2.117h-6.176V6.896h141.407l.735 48.581h-7.003c-4.735-13.52-12.062-23.799-21.99-30.835-9.922-7.037-22.045-10.554-36.364-10.554-5.16 0-8.678.844-10.553 2.534-1.874 1.689-2.812 5.179-2.812 10.462v39.915h2.488c10.876 0 19.236-2.335 25.072-7.007 5.837-4.669 8.912-11.46 9.218-20.372h7.008v62.686l-7.008-.092c-.49-9.34-3.701-16.253-9.63-20.743-5.936-4.484-14.981-6.85-27.148-7.094v42.399c0 7.007.841 11.31 2.536 12.907 1.688 1.602 6.9 2.398 15.624 2.398 14.132 0 25.873-3.44 35.214-10.327 9.339-6.881 16.408-17.33 21.2-31.342h7.189l-1.751 48.856H415.229zM592.494 26.346c0-5.467-.629-8.911-1.89-10.324-1.259-1.411-3.794-2.122-7.604-2.122h-6.177V6.896h79.644v7.005h-6.819c-3.812 0-6.333.71-7.561 2.122-1.229 1.413-1.843 4.856-1.843 10.324v90.429c0 6.763 1.013 11.002 3.042 12.724 2.028 1.721 6.666 2.582 13.923 2.582 12.288 0 22.777-3.887 31.477-11.663 8.693-7.771 14.948-18.851 18.759-33.23h9.403l-1.291 52.081H576.824v-7.188h6.177c3.746 0 6.265-.738 7.557-2.216 1.291-1.474 1.937-5.008 1.937-10.598V26.346zm-357.849 94.579c0 5.041.69 8.251 2.075 9.634 1.382 1.381 4.1 2.075 8.157 2.075h2.673v6.635h-67.479v-6.635h3.78c3.378 0 5.871-.676 7.467-2.028 1.598-1.357 2.396-3.44 2.396-6.271V64.694c0-4.608-.643-7.745-1.934-9.403-1.293-1.659-3.937-2.489-7.93-2.489h-3.78v-6.636c10.386 0 20.097-.154 29.132-.46 9.034-.306 17.514-.769 25.441-1.383v76.602z"/></svg>